<?xml version="1.0" encoding="utf-8"?>
<!-- Generator: Adobe Illustrator 26.3.1, SVG Export Plug-In . SVG Version: 6.00 Build 0)  -->
<svg version="1.1" id="Layer_1" xmlns="http://www.w3.org/2000/svg" xmlns:xlink="http://www.w3.org/1999/xlink" x="0px" y="0px"
	 viewBox="0 0 50 50" style="enable-background:new 0 0 50 50;" xml:space="preserve">
<style type="text/css">
	.st0{fill:#ED323F;}
</style>
<g>
	<path class="st0" d="M27.6,44.9c-0.4,0-0.7-0.1-1-0.4L9.3,27.3C4.1,22.4,4,14.1,9,9s13.2-5.2,18.3-0.2C27.4,8.9,27.5,9,27.5,9
		c2-2,4.6-3.3,7.4-3.7c3.4-0.5,6.8,0.4,9.6,2.5c5.7,4.3,6.9,12.4,2.6,18.1c-0.4,0.5-0.8,1-1.3,1.5l-0.1,0.1l-17.2,17
		C28.3,44.7,27.9,44.9,27.6,44.9z M11.2,25.3L11.2,25.3l16.3,16.2l16.3-16.2l0.1-0.1c0.3-0.3,0.6-0.7,0.9-1c3.4-4.5,2.5-10.8-2-14.2
		c-2.2-1.6-4.8-2.3-7.5-1.9s-5,1.8-6.7,3.9c-0.3,0.4-0.7,0.6-1.1,0.6l0,0c-0.4,0-0.9-0.2-1.1-0.6c-0.3-0.4-0.7-0.8-1.1-1.2
		C21.3,6.9,14.9,7,11,11S7.2,21.4,11.2,25.3z"/>
	<path class="st0" d="M26.6,32.7L26.6,32.7c-0.6,0-1.1-0.4-1.3-0.9L23.8,28H1.7c-0.8,0-1.4-0.6-1.4-1.4s0.6-1.4,1.4-1.4h23
		c0.6,0,1.1,0.4,1.3,0.9l0.5,1.4l5.5-14c0.2-0.5,0.7-0.9,1.3-0.9s1.1,0.4,1.3,0.9L39,25.3h8.6c0.8,0,1.4,0.6,1.4,1.4
		S48.5,28,47.7,28h-9.6c-0.6,0-1.1-0.4-1.3-0.9l-3.5-9.3l-5.5,14C27.7,32.3,27.1,32.7,26.6,32.7z"/>
</g>
</svg>
