<?xml version="1.0" encoding="utf-8"?>
<!-- Generator: Adobe Illustrator 26.3.1, SVG Export Plug-In . SVG Version: 6.00 Build 0)  -->
<svg version="1.1" id="Layer_1" xmlns="http://www.w3.org/2000/svg" xmlns:xlink="http://www.w3.org/1999/xlink" x="0px" y="0px"
	 viewBox="0 0 512 512" style="enable-background:new 0 0 512 512;" xml:space="preserve">
<style type="text/css">
	.st0{fill:#ED323F;}
</style>
<g>
	<path class="st0" d="M348,446.7H163.9c-54.4,0-98.6-44.2-98.6-98.6V163.9c0.1-54.3,44.3-98.5,98.6-98.5H348
		c54.4,0,98.6,44.2,98.6,98.6v184.1C446.6,402.5,402.4,446.7,348,446.7z M163.9,78.4c-47.1,0-85.5,38.4-85.6,85.5v184.2
		c0,47.2,38.4,85.6,85.6,85.6H348c47.2,0,85.6-38.4,85.6-85.6V164c0-47.2-38.4-85.6-85.6-85.6H163.9z"/>
	<path class="st0" d="M256,331.6c-41.7,0-75.6-33.9-75.6-75.6c0-41.7,33.9-75.6,75.6-75.6c41.7,0,75.6,33.9,75.6,75.6
		C331.6,297.7,297.7,331.6,256,331.6z M256,193.4c-34.5,0-62.6,28.1-62.6,62.6s28.1,62.6,62.6,62.6s62.6-28.1,62.6-62.6
		S290.5,193.4,256,193.4z"/>
	<path class="st0" d="M359.6,152.4"/>
</g>
<circle class="st0" cx="376.4" cy="142.4" r="22.1"/>
</svg>
