<?xml version="1.0" encoding="utf-8"?>
<!-- Generator: Adobe Illustrator 26.3.1, SVG Export Plug-In . SVG Version: 6.00 Build 0)  -->
<svg version="1.1" id="Layer_1" xmlns="http://www.w3.org/2000/svg" xmlns:xlink="http://www.w3.org/1999/xlink" x="0px" y="0px"
	 viewBox="0 0 512 512" style="enable-background:new 0 0 512 512;" xml:space="preserve">
<style type="text/css">
	.st0{fill:#ED323F;}
</style>
<g>
	<path class="st0" d="M374.5,90.9H137.4c-25.6,0-46.5,20.9-46.5,46.5v237.1c0,25.6,20.9,46.5,46.5,46.5h237.1
		c25.6,0,46.5-20.9,46.5-46.5V137.4C421,111.8,400.1,90.9,374.5,90.9z M407,374.5c0,17.9-14.6,32.5-32.5,32.5H137.4
		c-17.9,0-32.5-14.6-32.5-32.5V137.4c0-17.9,14.6-32.5,32.5-32.5h237.1c17.9,0,32.5,14.6,32.5,32.5V374.5z"/>
	<path class="st0" d="M177,342c-3.9,0-7-3.1-7-7v-98.8c0-3.9,3.1-7,7-7s7,3.1,7,7V335C184,338.9,180.9,342,177,342z"/>
	<path class="st0" d="M177,184.2c-3.9,0-7-3.1-7-7V177c0-3.9,3.1-7,7-7s7,3.1,7,7v0.2C184,181.1,180.9,184.2,177,184.2z"/>
	<path class="st0" d="M342,275.7V335c0,3.9-3.1,7-7,7s-7-3.1-7-7v-59.3c0-17.9-14.6-32.5-32.5-32.5S263,257.8,263,275.7V335
		c0,3.9-3.1,7-7,7s-7-3.1-7-7v-98.8c0-3.9,3.1-7,7-7s7,3.1,7,7v6.3c8.4-8.2,19.9-13.3,32.5-13.3C321.1,229.2,342,250.1,342,275.7z"
		/>
</g>
</svg>
