<?xml version="1.0" encoding="utf-8"?>
<!-- Generator: Adobe Illustrator 26.3.1, SVG Export Plug-In . SVG Version: 6.00 Build 0)  -->
<svg version="1.1" id="Layer_1" xmlns="http://www.w3.org/2000/svg" xmlns:xlink="http://www.w3.org/1999/xlink" x="0px" y="0px"
	 viewBox="0 0 500 150" style="enable-background:new 0 0 500 150;" xml:space="preserve">
<style type="text/css">
	.st0{fill:#42515A;}
	.st1{fill:#ED323F;}
</style>
<path class="st0" d="M108.7,8.3c-6.3,0.2-12,2.1-16.5,5.3C87,17.3,83.2,23,81,30.3c-0.8,2.6-1.3,5.3-1.6,8.5c-0.2,1.5-0.1,6.5,0,8.1
	c0.8,7.7,3.2,15.1,7.5,22.8c2.1,3.7,4.1,6.7,7.4,11.1c0.6,0.8,2.9,3.5,3.7,4.4c5.6,6.2,11.4,11.4,18.5,16.6c2.7,2,4.2,3,6.8,4.8
	c5.1,3.4,9.9,6.3,16.2,9.7c0.5,0.3,1,0.5,1.1,0.6l0.3,0.1l-0.4-0.4c-0.8-0.9-2.3-2.9-3.5-4.5c-1.2-1.7-3.7-5.5-4.2-6.4
	c0-0.1-0.3-0.6-0.7-1.1c-0.6-1-1.9-3.2-2.3-4c-1-1.9-1.4-2.6-2.1-4c-4.7-9.4-7.7-18.7-8.6-27c-0.3-2.5-0.3-3.2-0.3-6.4
	c0-3.9,0.2-6.1,0.7-9.5c1.6-9.5,5.3-17.9,11.1-25.2c2.2-2.8,5.7-6.3,8.2-8.1c0.4-0.3,0.7-0.5,0.7-0.5c0.1-0.1-2.1-1.8-3.6-2.9
	c-2.6-1.9-5-3.4-7.1-4.4C123.4,9.5,115.7,8,108.7,8.3z"/>
<path class="st1" d="M169.3,8.2c-7.2,0.3-14.2,2.2-20.1,5.4c-0.6,0.3-1.3,0.7-1.6,0.9c-0.2,0.2-0.4,0.3-0.5,0.3c0,0-0.4,0.2-0.8,0.5
	c-0.4,0.3-0.8,0.6-0.9,0.6c-0.4,0.2-1.1,0.8-1.1,0.9c0,0,0,0.1,0,0c-0.1,0-1.6,1.1-1.5,1.2c0,0,0,0.1,0,0c-0.1-0.1-2.6,2.3-2.6,2.4
	c0,0,0,0.1,0,0c-0.1,0-1,0.9-1.6,1.7c-0.2,0.2-0.5,0.6-0.8,0.9c-0.3,0.3-0.6,0.7-0.7,0.8c-0.6,0.8-1.2,1.6-1.4,1.9
	c-0.1,0.2-0.4,0.6-0.6,0.9c-0.9,1.3-2,3.2-2.9,4.8c-0.5,1-1.4,2.9-1.5,3c0,0-0.1,0.3-0.2,0.5c-0.8,1.8-2.1,5.3-2.8,7.9
	c-1.5,5.3-2.2,10.4-2.3,17l0,2.5l3.5,0c1.9,0,6.5,0.1,10.1,0.1c6.2,0,6.6,0,6.7-0.1c0-0.1,0.2-0.7,0.3-1.5c0.2-0.7,0.5-2.1,0.7-3
	c0.2-0.9,0.5-2.2,0.7-2.9c0.2-0.7,0.3-1.4,0.4-1.6c0-0.2,0.2-0.8,0.3-1.5c0.1-0.6,0.3-1.5,0.4-1.9c0.1-0.4,0.6-2.5,1.1-4.7
	c0.5-2.2,1-4.3,1.1-4.7c0.1-0.4,0.7-3.2,1.4-6.2c0.7-3,1.3-5.6,1.4-5.9c0.1-0.5,0.2-0.8,0.2-0.5c0,0.1,0.2,2.2,0.3,4.7
	c0.6,8.1,1.1,14.7,1.1,15.8c0,0.6,0.2,2.6,0.3,4.6c0.1,1.9,0.5,6.3,0.7,9.7c0.7,9.8,0.9,12.2,0.9,12.3c0,0,0.1-0.2,0.1-0.5
	c0-0.3,0.8-5.6,1.7-11.6c0.9-6,1.7-11.8,1.9-12.8c0.3-2.4,0.4-2.8,0.5-2.7c0,0,0.1,0.2,0.1,0.3c0,0.2,0.3,1.8,0.6,3.5
	c0.3,1.8,0.9,5.1,1.3,7.4c0.4,2.3,0.7,4.2,0.8,4.3c0,0.1,0.1,0,0.1-0.1c0.1-0.2,1.6-4.6,2.7-8.1c0.2-0.6,0.3-0.8,0.3-0.7
	c0,0.1,0.2,1,0.4,2.1c0.2,1.1,0.5,2.9,0.7,4c0.2,1.1,0.4,2,0.4,2.1c0,0,1.7,0,3.7,0l3.7,0l0.6-2.5c0.3-1.4,0.8-3.5,1.1-4.8
	c0.3-1.3,0.5-2.3,0.6-2.3c0,0,0,0,0.1,0c0,0,0.8,3.6,1.6,7.3c0.2,0.8,0.3,1.5,0.4,1.7s0.1,0.5,0.2,0.7l0.1,0.4l0.6-3.3
	c0.8-4.5,2.6-14,2.8-15.2c0.1-0.5,0.2-1,0.2-1c0,0,0.1,0.3,0.1,0.6c0.2,1.9,0.8,10.1,1.1,13.7c0.2,2.3,0.4,4.4,0.4,4.4l0,0.2h5.8
	h5.8l0.3-0.7c1.7-3.9,3-8.7,3.7-12.9c1.1-7.3,0.4-14.5-2-21c-0.6-1.5-0.7-1.7-1.4-3.2c-1-1.9-2.8-4.9-2.9-4.8c-0.1,0-0.1,0,0,0
	c0-0.1-0.7-1-1.5-2c-0.7-0.8-2.5-2.5-3.1-3c0,0-0.4-0.3-0.7-0.6c-0.8-0.6-2.2-1.6-3.4-2.2C181.5,9.3,175.7,8,169.3,8.2z"/>
<path class="st0" d="M323.6,38.5c-7.4,0.3-14.4,3.1-20.4,7.9c-0.9,0.7-2.7,2.5-3.6,3.5c-2.7,3.2-4.6,6.8-5.8,10.7
	c-0.3,1-0.3,1.1-0.4,0.9c0-0.1-1.9-4.9-4.2-10.7l-4.1-10.5l-5.9,0c-5.6,0-5.9,0-6,0.1c-0.1,0.1-0.8,2-2.6,6.7
	c-0.4,1-1.7,4.3-2.9,7.5c-1.2,3.2-2.6,6.5-2.9,7.5c-0.4,1-1.2,3-1.8,4.6c-0.6,1.6-1.8,4.7-2.7,6.9c-0.9,2.2-2.1,5.3-2.7,7
	c-0.6,1.6-1.4,3.5-1.6,4.1c-0.9,2.2-6.3,16-6.3,16.2c0,0.1,1.2,0.1,6.1,0.1h6.1l0.8-2c0.5-1.1,1.1-2.8,1.5-3.8
	c0.4-1,1.1-2.9,1.7-4.2l1-2.4h12.6c10,0,12.6,0,12.6,0.1c0,0.1,1.6,4.1,2,5.3c0.2,0.4,0.8,2.1,1.5,3.9c0.7,1.7,1.2,3.2,1.3,3.2
	c0,0,2.8,0,6.1,0l6.1,0l-0.6-1.6c-0.3-0.9-0.6-1.6-0.6-1.6c0,0,0.4,0.2,0.8,0.4c4.1,2.2,8.6,3.5,13.7,3.9c1.3,0.1,4.9,0.1,6.3,0
	c3.3-0.2,6.1-0.8,8.9-1.8c1.7-0.6,3.5-1.4,5.1-2.4c0.4-0.3,0.8-0.4,0.8-0.4c0,0,0,0.8,0,1.8v1.8h15.6h15.6v-5.7v-5.7h-9.8h-9.8v-8
	v-8h9.2h9.2v-5.6v-5.6h-9.2h-9.2v-5.5v-5.5h9.7h9.7V46v-5.6h-15.5h-15.5v21.4v21.4l-0.6,0.6c-3.1,2.9-6.2,4.9-8.9,6
	c-4.8,1.9-10.8,2-15.8,0.3c-2.1-0.7-4.4-2-6.2-3.3c-0.9-0.7-2.3-2.1-3-2.9c-1.7-2.1-3-4.8-3.7-7.3c-1.1-4.3-1-9.1,0.3-12.9
	c1-2.9,2.5-5.4,4.8-7.7c3.8-3.8,8.5-5.9,14-6.1l1,0l0.1-1.3c0-0.7,0.1-3,0.1-5.1c0-2.1,0.1-4,0.1-4.3l0-0.5l-0.3,0
	C324.9,38.4,324.3,38.5,323.6,38.5z M281.2,61.3c1,2.6,2.3,5.9,2.9,7.4c0.6,1.4,1.5,3.9,2.2,5.5c0.6,1.6,1.1,2.9,1.2,3l0,0.2h-8.2
	c-6.2,0-8.2,0-8.2-0.1c0,0,0.3-0.9,0.7-1.9c1.8-4.6,3.1-7.8,4-10c0.5-1.3,1.4-3.5,1.9-4.9c0.5-1.3,1.1-2.8,1.3-3.2
	c0.2-0.4,0.3-0.8,0.4-0.7C279.4,56.5,280.2,58.7,281.2,61.3z"/>
<path class="st0" d="M218.4,70.7v30.4h5.8h5.8V88.2V75.4l1.3,0c0.7,0,1.9-0.1,2.7-0.1c2.6,0,8-0.2,11.2-0.4c3-0.2,3.9-0.3,5.3-0.8
	c5.5-1.8,9.4-5.6,10.9-10.6c0.6-1.9,0.7-3.3,0.7-5.6c0-3.3-0.6-5.9-1.8-8.4c-1.5-3.1-3.9-5.4-6.9-6.9c-0.5-0.3-1.2-0.5-1.5-0.6
	c-1.7-0.5-5.6-1-10.5-1.3c-4.1-0.3-5.1-0.3-13.9-0.3l-9.1,0L218.4,70.7z M238.3,51.7c4.2,0.2,7.4,0.5,8.8,0.8c0.8,0.2,1.3,0.4,1.9,1
	c0.9,0.8,1.5,1.9,1.7,3.3c0.1,0.7,0,2.2-0.1,2.9c-0.3,1-0.8,2-1.5,2.6c-0.9,0.8-1.7,1.2-2.8,1.3c-2.1,0.3-6.5,0.4-11.8,0.4l-4.3,0
	l0-6.2c0-3.4,0-6.2,0-6.3c0-0.1,0.5-0.1,3.4-0.1C235.3,51.6,237.4,51.6,238.3,51.7z"/>
<path class="st1" d="M151.9,44.8c-0.2,0.7-0.5,2.3-0.8,3.6c-0.9,4.3-1.2,5.8-1.8,8.3c-0.1,0.5-0.4,1.7-0.6,2.6
	c-0.7,3.1-1.1,5.1-1.1,5.2c0,0-5,0-11.1,0.1c-6.1,0-11.1,0.1-11.1,0.1c-0.1,0.1,0.2,4.4,0.5,6.6c0.5,4.3,1.9,9.3,4.5,15.7
	c1,2.5,2.6,6,3.1,7c0.1,0.2,0.2,0.3,0.2,0.4c0,0.2,2.4,4.9,3.2,6.4c1.2,2.3,2.4,4.4,3.6,6.4c1.4,2.4,4,6.3,4.1,6.3
	c0,0,0.1,0,0.1,0.1c0,0.1,0.1,0.2,1,1.5c0.6,0.9,1.4,1.8,1.5,1.8c0.1,0,1.9-1.1,3-1.7c1.2-0.8,3.7-2.4,4.9-3.2
	c0.9-0.6,3-2.1,3.3-2.3c3.5-2.7,7.3-5.8,9.4-7.8c0.3-0.3,0.6-0.6,0.6-0.5c0,0.1,4.5-4.4,6.2-6.1c1.9-2,2.3-2.4,2.2-2.5
	c0,0,0-0.1,0,0c0,0,0.3-0.3,0.7-0.6c0.3-0.4,0.8-0.9,1.1-1.3c1.1-1.3,1.3-1.5,1.3-1.6c0-0.1,0-0.1,0,0c0.1,0.1,0.4-0.3,2.2-2.4
	c2-2.5,3.3-4.2,5.7-7.6c0.2-0.3,0.4-0.6,0.4-0.6c0,0,0-0.1,0.1-0.1c0.2-0.1,3.7-5.5,4.5-6.9c0.1-0.2,0.3-0.5,0.4-0.6
	c0.3-0.5,1.7-2.9,1.6-2.9c0,0,0-0.1,0.1-0.2c0.2-0.3,1.8-3.5,1.8-3.6c0,0-2.8-0.1-6.1-0.1c-3.3,0-6.1-0.1-6.1-0.1c0,0,0-0.2,0-0.4
	c-0.1-1.3-0.6-7-0.6-7c0,0-0.8,4.8-1.9,11.8c-0.4,2.7-0.5,2.9-0.5,2.9c0,0-0.7-2.1-1.4-4.7c-0.8-2.6-1.4-4.7-1.5-4.7
	c0,0-0.2,0.4-0.3,0.8c0,0,0,0.1-0.1,0.2c0,0.1-0.2,0.5-0.3,0.9l-0.3,0.7l-5-0.1c-2.7,0-5-0.1-5-0.1c0,0-0.8-2.9-0.8-3
	c0,0-0.4,1.2-0.8,2.7c-0.5,1.5-1.1,3.5-1.4,4.4c-0.3,0.9-0.6,1.8-0.6,2c0,0.2-0.1,0.3-0.1,0.2c-0.1,0-0.4-1.4-1.4-6.3
	c-0.4-1.9-0.8-3.5-0.8-3.5c0,0-0.1,0.4-0.2,0.7c-0.2,1-0.4,2.1-1,5.9c-0.2,0.8-0.4,2.1-0.5,2.9c-0.5,2.9-2.5,14-2.7,15
	c-0.1,0.6-0.2,1.3-0.3,1.6c0,0.3-0.1,0.5-0.1,0.5c0,0-0.1-0.3-0.1-0.6c0-0.3-0.2-2.1-0.4-4c-0.2-1.9-0.5-5.5-0.8-8
	c-0.4-4.5-1.2-12-1.8-18.7c-0.2-1.9-0.4-4.2-0.5-5c-0.5-5.5-0.7-7.6-0.8-7.7C152.2,43.6,152.1,44.1,151.9,44.8z"/>
<path class="st0" d="M109.8,128.4c-0.9,0.3-1.6,0.9-2.1,1.7c-0.2,0.5-0.3,0.5-0.3,1.3v0.8l0.3,0.7c0.3,0.5,0.5,0.8,1.1,1.4
	c0.4,0.4,1.2,1.1,1.8,1.6c1.6,1.3,1.9,1.6,1.9,2.3c0,0.4-0.2,0.7-0.6,1c-1,0.6-2.1,0.1-3-1.3c-0.1-0.1-0.2-0.1-1.1,0.5l-1.1,0.6
	l0.2,0.3c0.8,1.4,1.7,2.1,2.9,2.4c0.6,0.1,1.8,0.1,2.4,0c1.8-0.5,2.9-2,2.8-3.8c-0.1-0.9-0.4-1.7-1.2-2.5c-0.2-0.2-1-0.9-1.9-1.6
	c-1.7-1.5-1.9-1.7-2.1-2.1c-0.1-0.3-0.1-0.3,0.1-0.5c0.3-0.6,1.2-0.7,1.8-0.3c0.3,0.2,0.8,0.6,1,0.9c0.2,0.2,0.1,0.3,1.3-0.7
	l0.8-0.7l-0.5-0.5c-0.6-0.6-1.1-1-1.8-1.3C111.8,128.3,110.4,128.2,109.8,128.4z"/>
<path class="st0" d="M224.2,128.4c-2.7,0.6-4.8,2.6-5.3,5.1c-0.1,0.6-0.1,2.4,0,2.9c0.3,1.5,0.9,2.6,2,3.6c0.7,0.6,1.5,1.1,2.3,1.4
	c0.8,0.3,1.4,0.4,2.5,0.4c1.6,0,2.8-0.3,4-1.1c0.6-0.4,1.7-1.2,1.7-1.3c0,0-0.4-0.4-0.8-0.9l-0.8-0.8l-0.4,0.4
	c-1.1,1-2.1,1.4-3.5,1.4c-2,0-3.6-1-4.2-2.9c-0.3-0.7-0.3-2-0.1-2.7c0.2-0.8,0.5-1.4,1.2-2c0.9-0.9,1.8-1.3,3.2-1.3
	c1.4,0,2.6,0.5,3.6,1.5l0.4,0.4l0.9-0.8l0.9-0.8l-0.5-0.5c-0.9-0.8-2-1.5-3.2-1.8C227,128.3,225,128.2,224.2,128.4z"/>
<path class="st0" d="M268.7,128.4c-1.4,0.3-2.7,1-3.7,2c-1.2,1.2-1.7,2.7-1.7,4.6c0,2.1,0.7,3.7,2.1,5c1.3,1.2,2.8,1.7,4.8,1.7
	c2,0,3.3-0.4,4.7-1.6c0.7-0.6,0.9-0.8,0.8-0.9c-0.1-0.2-1.5-1.6-1.6-1.6c0,0-0.2,0.1-0.3,0.3c-0.3,0.3-1,0.8-1.5,1.1
	c-0.9,0.4-2.3,0.6-3.3,0.3c-2-0.5-3.3-2.2-3.3-4.3c0-1.3,0.4-2.2,1.3-3.1c0.6-0.6,1.2-0.9,2-1.2c0.6-0.1,1.7-0.1,2.3,0
	c0.7,0.2,1.7,0.7,2.3,1.2l0.6,0.5l0.8-0.8l0.8-0.8l-0.6-0.6c-0.9-0.9-2.3-1.6-3.6-1.8C271,128.3,269.4,128.3,268.7,128.4z"/>
<path class="st0" d="M342.4,128.5c-2.7,0.7-4.5,2.6-5,5.1c-0.2,0.8-0.1,2.7,0.1,3.4c0.3,1.1,1,2.3,1.9,3.1c1.3,1.2,2.8,1.8,4.8,1.8
	c2.1,0,3.4-0.5,5.1-1.9c0.3-0.3,0.6-0.5,0.6-0.5c0,0-0.4-0.4-0.8-0.9l-0.8-0.8l-0.3,0.3c-1.1,1.1-2.2,1.5-3.7,1.5
	c-2.6,0-4.4-1.9-4.4-4.4c0-1.2,0.5-2.3,1.3-3.1c0.9-0.8,1.7-1.2,2.9-1.2c1.5-0.1,2.7,0.4,3.8,1.4l0.5,0.4l0.9-0.8l0.9-0.8l-0.5-0.5
	c-0.8-0.8-1.9-1.5-3.2-1.8c-0.6-0.2-0.8-0.2-1.9-0.2C343.2,128.3,343.1,128.3,342.4,128.5z"/>
<path class="st0" d="M450.9,128.4c-1.6,0.3-3,1.2-3.9,2.5c-0.6,0.7-0.9,1.4-1.2,2.3c-0.2,0.6-0.2,0.8-0.2,1.8c0,1.3,0.1,1.7,0.5,2.7
	c0.6,1.6,2.2,3.1,3.7,3.7c0.9,0.4,1.6,0.5,2.9,0.4c1.2,0,1.8-0.2,2.6-0.6c1.7-0.8,3.1-2.5,3.6-4.3c0.2-0.8,0.2-2.5,0-3.4
	c-0.5-2.2-2.3-4.1-4.5-4.9c-0.7-0.2-0.8-0.3-1.9-0.3C451.7,128.3,451.2,128.3,450.9,128.4z M453.3,130.8c1.5,0.4,2.7,1.5,3.2,3.1
	c0.2,0.7,0.2,2-0.1,2.7c-0.3,0.8-0.6,1.3-1.2,1.8c-1.7,1.6-4.3,1.5-6-0.1c-0.9-0.9-1.3-1.8-1.3-3.1c0-1.6,0.7-2.9,2-3.7
	c0.4-0.3,1.1-0.5,1.5-0.6C452,130.6,452.9,130.7,453.3,130.8z"/>
<path class="st0" d="M27.3,135v6.5h1.2h1.2l0-2.7l0-2.7l1.1-0.1c1.5-0.1,2.1-0.3,2.9-0.8c0.4-0.3,0.9-1,1.1-1.6
	c0.2-0.7,0.2-1.9,0-2.5c-0.2-0.6-0.5-1.1-0.9-1.5c-0.4-0.4-0.8-0.6-1.5-0.8c-0.5-0.1-0.8-0.2-2.9-0.2l-2.3,0L27.3,135z M31.3,131
	c0.9,0.1,1.4,0.5,1.4,1.3c0,0.5-0.1,0.8-0.5,1c-0.3,0.3-0.6,0.3-1.6,0.3h-0.8l0-1.2c0-0.7,0-1.3,0-1.3
	C29.8,130.9,30.6,130.9,31.3,131z"/>
<path class="st0" d="M41.8,129.8c-0.3,0.7-0.9,2.2-1.3,3.4c-0.5,1.2-1.4,3.6-2,5.2c-0.6,1.6-1.2,3-1.2,3c0,0,0.6,0,1.3,0l1.3,0
	l0.5-1.3l0.5-1.3h2.7h2.7l0.5,1.3l0.5,1.3h1.3h1.3l-0.1-0.2c0-0.1-1.2-3-2.5-6.4l-2.4-6.2l-1.3,0l-1.3,0L41.8,129.8z M43.7,132.4
	c0.2,0.4,1.5,3.8,1.6,3.9c0,0.1-0.3,0.1-1.7,0.1c-1,0-1.8,0-1.8,0c0,0,0.4-1,0.9-2.2c0.5-1.2,0.9-2.2,0.9-2.2
	C43.5,132,43.6,132.1,43.7,132.4z"/>
<path class="st0" d="M52.6,135v6.5h1.3h1.3v-2.7c0-2.3,0-2.7,0.1-2.7c0.1,0,0.7,1.2,1.6,2.7l1.5,2.7h1.4H61l-0.4-0.7
	c-0.2-0.4-0.5-0.9-0.6-1.2c-1.4-2.5-2-3.8-2-3.8c0,0,0.2-0.2,0.5-0.3c1.3-0.6,2.1-2,1.9-3.6c-0.1-1.3-0.9-2.4-1.9-2.9
	c-0.8-0.3-1.1-0.4-3.5-0.4l-2.3,0V135z M57.2,131.1c0.6,0.2,0.9,0.8,0.8,1.4c-0.1,0.8-0.6,1-2,1.1l-0.9,0v-1.4v-1.4l0.9,0
	C56.6,131,57,131.1,57.2,131.1z"/>
<path class="st0" d="M62.5,129.8v1.2h1.1h1.1v5.2v5.2h1.3h1.3v-5.2V131h1.2h1.2v-1.2v-1.2h-3.6h-3.6L62.5,129.8z"/>
<path class="st0" d="M72.2,135v6.4h1.2h1.2v-4.2V133l0.6,0.9c0.3,0.5,1,1.5,1.4,2.2c0.5,0.7,1.4,2.2,2.2,3.3l1.4,2.1h1.2h1.2V135
	v-6.4h-1.2h-1.2l0,4.2l0,4.2l-0.5-0.7c-0.6-0.9-3.4-5.1-4.2-6.3c-0.3-0.5-0.7-1-0.8-1.2l-0.2-0.3h-1.2h-1.2L72.2,135L72.2,135z"/>
<path class="st0" d="M86.4,135v6.4H90h3.6v-1.2v-1.2h-2.3h-2.3l0-1.7l0-1.7l2.3,0c1.3,0,2.3,0,2.3,0c0,0,0.1-0.5,0.1-1.1v-1.1
	l-2.2,0c-1.2,0-2.3,0-2.3,0c-0.1,0-0.1-0.3-0.1-1.2V131l2.3,0c1.3,0,2.3,0,2.3,0c0,0,0.1-0.5,0.1-1.2v-1.2H90h-3.6L86.4,135z"/>
<path class="st0" d="M96.8,135c0,3.5,0,6.4,0,6.4c0,0,0.5,0.1,1.2,0.1l1.2,0v-2.7c0-2.5,0-2.8,0.1-2.7c0.1,0,0.7,1.1,1.6,2.7
	l1.5,2.7l1.4,0c0.7,0,1.4,0,1.4,0c0,0-0.2-0.4-0.4-0.8c-0.2-0.4-0.6-1.1-0.9-1.6c-0.3-0.5-0.8-1.4-1.1-2c-0.3-0.6-0.6-1.2-0.6-1.2
	c0-0.1,0.1-0.2,0.5-0.4c1.5-0.7,2.2-2.3,1.8-4.1c-0.1-0.6-0.5-1.2-0.9-1.7c-0.5-0.5-0.8-0.7-1.6-0.9c-0.5-0.1-0.8-0.2-2.9-0.2
	l-2.3,0L96.8,135L96.8,135z M101.3,131.1c0.4,0.2,0.6,0.4,0.7,0.7c0.2,0.6,0,1.3-0.5,1.5c-0.3,0.2-1,0.3-1.7,0.3h-0.6v-1.4v-1.4
	l0.9,0C100.7,131,101.1,131.1,101.3,131.1z"/>
<path class="st0" d="M123.7,135v6.4h1.2h1.2V135v-6.4H125h-1.2V135z"/>
<path class="st0" d="M129.7,135v6.4h1.3h1.3v-4.2V133l0.8,1.2c0.4,0.6,1,1.5,1.3,2c0.3,0.5,1.2,1.9,2,3.1l1.5,2.2h1.2h1.2V135v-6.4
	H139h-1.2l0,4.2l0,4.2l-2.8-4.2l-2.8-4.2H131h-1.2L129.7,135z"/>
<path class="st0" d="M153.7,128.8c0,0.1-0.4,0.9-0.7,1.8c-0.3,0.9-1.4,3.5-2.3,5.8c-0.9,2.3-1.7,4.4-1.8,4.7l-0.2,0.5h1.3h1.3
	l0.3-0.9c0.2-0.5,0.4-1.1,0.5-1.3l0.2-0.4h2.7h2.7l0.5,1.3l0.5,1.3l1.3,0c1.2,0,1.3,0,1.3-0.1c0-0.1-0.6-1.5-1.2-3.1
	c-0.6-1.7-1.8-4.5-2.5-6.3l-1.3-3.3l-1.3,0C153.8,128.6,153.8,128.6,153.7,128.8z M156,134.4c0.4,1,0.7,1.9,0.7,2
	c0,0-0.6,0.1-1.7,0.1c-1,0-1.7,0-1.7-0.1c0,0,0.1-0.3,0.2-0.6c0.1-0.3,0.5-1.2,0.8-2.1c0.3-0.8,0.6-1.6,0.6-1.6c0,0,0.1,0,0.1,0.2
	C155.2,132.4,155.6,133.4,156,134.4z"/>
<path class="st0" d="M164,135v6.5l2.6,0c2.9,0,3.6-0.1,4.4-0.5c1.5-0.7,2.6-2,3.1-3.8c0.2-0.5,0.2-0.8,0.2-2c0-1.5-0.1-1.9-0.5-2.9
	c-0.5-1.3-1.6-2.5-2.6-3c-1.1-0.6-2.3-0.7-5.2-0.7h-2V135z M168.7,131.1c1.6,0.3,2.6,1.2,3,2.7c0.2,0.7,0.2,2.1,0,2.7
	c-0.3,1-0.9,1.8-1.6,2.2c-0.5,0.3-1.2,0.4-2.5,0.4l-1.2,0v-4.1V131h0.8C167.7,130.9,168.3,131,168.7,131.1z"/>
<path class="st0" d="M176.6,128.9c0.3,0.7,3.2,8.8,4,11l0.6,1.6h1.2c0.7,0,1.2,0,1.2,0c0,0,0.8-2.2,1.8-4.8c1-2.6,2-5.5,2.3-6.3
	c0.3-0.8,0.6-1.6,0.6-1.6c0.1-0.1,0-0.1-1.2-0.1h-1.3l-0.2,0.4c-0.2,0.6-1.2,3.2-2.2,6.2c-0.5,1.4-0.9,2.5-0.9,2.5
	c0,0-0.1-0.1-0.1-0.2c-0.1-0.1-0.4-1.2-0.9-2.4c-0.4-1.2-1.1-3.1-1.5-4.3l-0.8-2.1h-1.3h-1.3L176.6,128.9z"/>
<path class="st0" d="M194.9,128.8c0,0.1-0.4,1-0.8,2.1c-0.4,1.1-1.3,3.3-1.9,4.9c-1.1,2.8-2,5.2-2.2,5.6l-0.1,0.2h1.3h1.3l0.5-1.3
	l0.5-1.3h2.7h2.7l0.5,1.3l0.5,1.3l1.3,0c0.7,0,1.3,0,1.3,0c0-0.1-0.8-2.2-2-5.1c-0.5-1.2-1.1-2.9-1.5-3.8c-0.3-0.9-0.8-2.1-1.1-2.7
	l-0.4-1.1l-1.3,0C195,128.6,195,128.6,194.9,128.8z M197.5,135.1l0.5,1.2l-1.7,0c-0.9,0-1.7,0-1.7,0c0,0,1.2-3.3,1.6-4.1l0.1-0.3
	l0.4,0.9C196.8,133.5,197.2,134.5,197.5,135.1z"/>
<path class="st0" d="M205.2,135v6.4h1.2h1.2v-4.2c0-2.3,0-4.2,0.1-4.2c0,0,0.6,0.8,1.2,1.7c0.6,0.9,1.6,2.4,2.2,3.3
	c0.6,0.9,1.3,2,1.6,2.4l0.6,0.9l1.2,0h1.2V135v-6.4h-1.2h-1.2v4.2c0,2.3,0,4.2-0.1,4.2c-0.1,0-0.6-0.8-3.4-5.1
	c-0.4-0.6-1.1-1.6-1.5-2.2l-0.7-1.1h-1.2h-1.2L205.2,135z"/>
<path class="st0" d="M234.4,135v6.4h3.6h3.6v-1.2v-1.2h-2.3h-2.3v-1.7v-1.7h2.3h2.3v-1.1c0-0.9,0-1.1-0.1-1.1c-0.1,0-1.1,0-2.3,0
	l-2.2,0v-1.2V131h2.3h2.3v-1.2v-1.2H238h-3.6L234.4,135z"/>
<path class="st0" d="M244.6,135v6.4h2c3.9,0,4.9-0.2,6.1-1.2c1.8-1.4,2.6-3.9,2.1-6.6c-0.2-1.3-1-2.8-1.9-3.6
	c-1.3-1.2-2.6-1.5-6.4-1.5h-2L244.6,135z M249.4,131.1c0.9,0.2,1.5,0.5,1.9,0.9c0.7,0.7,1,1.6,1.1,2.9c0.1,2-0.7,3.6-2.2,4
	c-0.5,0.1-1.9,0.3-2.6,0.2l-0.6,0l0-4.1l0-4.1h0.8C248.4,130.9,248.9,131,249.4,131.1z"/>
<path class="st0" d="M282.8,128.8c-0.2,0.4-2.7,6.9-3.8,9.6c-0.6,1.5-1.1,2.8-1.1,2.9l-0.1,0.2l1.3,0l1.3,0l0.5-1.3l0.5-1.3h2.7h2.7
	l0.3,0.9c0.2,0.5,0.4,1.1,0.5,1.3l0.2,0.5h1.3h1.3l-0.1-0.3c-0.2-0.4-4.7-12-4.8-12.3l-0.1-0.3h-1.3h-1.3L282.8,128.8z M285,134.3
	c0.4,1.1,0.8,2,0.8,2.1c0,0.1-0.3,0.1-1.7,0.1c-1.4,0-1.8,0-1.7-0.1c0,0,0.4-1,0.9-2.2c0.6-1.6,0.9-2.1,0.9-2
	C284.2,132.2,284.6,133.2,285,134.3z"/>
<path class="st0" d="M293.3,135v6.5h1.2h1.2v-2.7c0-2.3,0-2.7,0.1-2.7c0.1,0,0.7,1.1,1.6,2.7l1.5,2.7l1.4,0h1.4l-0.1-0.2
	c-0.1-0.1-0.5-0.9-1-1.8c-0.5-0.8-1-1.9-1.3-2.3c-0.2-0.4-0.5-0.9-0.6-1c-0.1-0.1-0.1-0.3-0.1-0.3c0,0,0.2-0.2,0.5-0.3
	c1-0.5,1.7-1.4,1.9-2.5c0.3-1.7-0.5-3.3-1.8-3.9c-0.7-0.3-1.2-0.4-3.6-0.4l-2.2,0L293.3,135z M297.8,131.1c0.2,0.1,0.4,0.2,0.5,0.3
	c0.5,0.6,0.4,1.6-0.2,1.9c-0.3,0.1-1,0.3-1.7,0.3h-0.6v-1.4v-1.4l0.9,0C297.2,131,297.6,131.1,297.8,131.1z"/>
<path class="st0" d="M304.4,135v6.4h2c2.2,0,3.5-0.1,4.2-0.3c1-0.3,1.8-0.8,2.6-1.6c0.4-0.5,1-1.7,1.2-2.5c0.2-0.8,0.3-2.2,0.1-3.1
	c-0.3-1.9-1.3-3.6-2.6-4.5c-1.2-0.8-2.4-1-5.7-1h-2V135z M309.4,131.1c0.8,0.2,1.3,0.5,1.7,0.9c0.7,0.8,1.1,1.7,1.1,3
	c0,1.2-0.2,1.9-0.7,2.7c-0.7,1-1.4,1.3-3.5,1.4l-1.2,0.1V135v-4.1l1.1,0C308.5,131,309.2,131.1,309.4,131.1z"/>
<path class="st0" d="M317.7,135v6.4h1.2h1.2V135v-6.4h-1.2h-1.2V135z"/>
<path class="st0" d="M327.5,128.9c-0.1,0.2-1.2,3-2.5,6.3c-1.3,3.3-2.4,6.1-2.4,6.1c0,0.1,0,0.1,1.3,0.1l1.3,0l0.5-1.3l0.5-1.3h2.7
	h2.7l0.2,0.6c0.1,0.3,0.3,0.9,0.5,1.3l0.3,0.8h1.3c1.2,0,1.3,0,1.2-0.1c-0.2-0.5-2.7-7-4.2-10.9l-0.7-1.9H329h-1.3L327.5,128.9z
	 M329.8,134.2c0.4,1.1,0.8,2.1,0.8,2.1c0,0.1-0.1,0.1-1.7,0.1c-1,0-1.7,0-1.7-0.1c0,0,0.4-1,0.9-2.2c0.5-1.2,0.9-2.1,0.9-2.1
	C329,132.1,329.4,133.1,329.8,134.2z"/>
<path class="st0" d="M358.7,135v6.4h3.6h3.6v-1.2v-1.2h-2.3h-2.3l0-1.7l0-1.7l2.3,0l2.3,0v-1.1v-1.1l-2.3,0l-2.3,0v-1.2V131l2.3,0
	l2.3,0v-1.2v-1.2h-3.6h-3.6L358.7,135z"/>
<path class="st0" d="M368,128.7c0,0,0.4,1.2,0.9,2.5c0.5,1.3,1,2.9,1.3,3.5c0.2,0.6,0.6,1.6,0.8,2.2c0.6,1.5,1.3,3.7,1.5,4.2
	l0.2,0.5h1.2h1.2l0.1-0.3c0.1-0.3,1.8-4.8,2.3-6.4c0.2-0.6,0.8-2.2,1.3-3.6c0.5-1.4,0.9-2.6,0.9-2.6c0,0-0.6,0-1.3,0l-1.3,0
	l-0.2,0.5c-0.2,0.7-2,5.6-2.6,7.3c-0.3,0.7-0.5,1.3-0.5,1.3c0,0-0.1-0.2-0.2-0.4c-0.1-0.2-0.5-1.3-0.9-2.4c-0.4-1.2-1.1-3-1.5-4.2
	l-0.8-2.1h-1.3C368.5,128.6,368,128.6,368,128.7z"/>
<path class="st0" d="M386.3,128.7c0,0.1-0.8,2.2-1.8,4.7c-1,2.5-2,5.1-2.3,5.9c-0.3,0.7-0.6,1.5-0.7,1.8l-0.2,0.5h1.3h1.3l0.5-1.3
	l0.5-1.3l2.7,0l2.7,0l0.3,0.7c0.2,0.4,0.4,1,0.5,1.3l0.2,0.6h1.3c0.9,0,1.3,0,1.3-0.1c0,0-0.3-0.8-0.6-1.7c-1-2.6-2.9-7.4-3.6-9.3
	l-0.7-1.8l-1.3,0C386.5,128.6,386.3,128.6,386.3,128.7z M388.1,133c0.2,0.5,0.6,1.5,0.8,2.2l0.5,1.2l-1.7,0c-0.9,0-1.7,0-1.7,0
	c0,0,0.3-0.9,0.8-2c0.4-1.1,0.8-2.1,0.9-2.2c0-0.1,0.1-0.2,0.1-0.1C387.7,132.1,387.8,132.5,388.1,133z"/>
<path class="st0" d="M396.6,135v6.4h3h3v-1.2v-1.2h-1.8H399v-5.3v-5.3h-1.2h-1.2V135z"/>
<path class="st0" d="M405.3,133.5c0,4.3,0,4.9,0.2,5.4c0.4,1.4,1.5,2.5,3,2.8c0.7,0.2,2.2,0.1,2.9-0.1c0.8-0.3,1.4-0.8,2-1.6
	c0.7-0.9,0.7-1.6,0.8-7.5v-3.9h-1.3h-1.3l0,4.7c0,4.7,0,4.8-0.2,5.1c-0.2,0.4-0.4,0.6-0.9,0.8c-0.4,0.2-1.2,0.2-1.6,0.1
	c-0.4-0.1-0.8-0.5-1-0.8l-0.2-0.3l0-4.8l0-4.8h-1.2h-1.2V133.5z"/>
<path class="st0" d="M420.4,131.9c-0.7,1.8-1.8,4.7-2.5,6.3c-0.6,1.6-1.2,3-1.2,3.1c0,0.1,0,0.1,1.3,0.1l1.3,0l0.5-1.3l0.5-1.3h2.7
	h2.7l0.4,1c0.2,0.5,0.4,1.1,0.5,1.3l0.1,0.3h1.3c1.2,0,1.3,0,1.2-0.1c-0.1-0.3-1.6-4-2-5.2c-0.3-0.7-1-2.7-1.7-4.4l-1.2-3.1H423
	h-1.3L420.4,131.9z M423.9,134.2c0.4,1.1,0.8,2.1,0.8,2.1c0,0.1-0.3,0.1-1.7,0.1c-1.4,0-1.7,0-1.7-0.1c0,0,0.4-1,0.9-2.2
	c0.5-1.2,0.9-2.1,0.9-2.1C423.1,132.1,423.4,133.1,423.9,134.2z"/>
<path class="st0" d="M430.7,129.8v1.2h1.1h1.1v5.2v5.2h1.3h1.3v-5.2V131h1.2h1.2v-1.2v-1.2h-3.6h-3.6L430.7,129.8z"/>
<path class="st0" d="M440.2,135v6.4h1.2h1.2V135v-6.4h-1.2h-1.2V135z"/>
<path class="st0" d="M462.2,135v6.4h1.2h1.2v-4.2c0-4,0-4.2,0.1-4.1c0.1,0.1,0.4,0.6,0.8,1.1c0.4,0.5,1,1.4,1.3,2
	c1.6,2.4,2.7,4,3,4.6l0.4,0.6h1.2h1.2V135v-6.4h-1.2h-1.2l0,3.7c0,2,0,3.9,0,4.2c0,0.3,0,0.5-0.1,0.5c0,0-1-1.4-2.1-3.2
	c-1.1-1.7-2.4-3.6-2.8-4.2l-0.7-1h-1.2h-1.2V135z"/>
</svg>
