<?xml version="1.0" encoding="utf-8"?>
<!-- Generator: Adobe Illustrator 26.3.1, SVG Export Plug-In . SVG Version: 6.00 Build 0)  -->
<svg version="1.1" id="Layer_1" xmlns="http://www.w3.org/2000/svg" xmlns:xlink="http://www.w3.org/1999/xlink" x="0px" y="0px"
	 viewBox="0 0 512 512" style="enable-background:new 0 0 512 512;" xml:space="preserve">
<style type="text/css">
	.st0{fill:#ED323F;}
</style>
<g>
	<path class="st0" d="M205.4,397.9c-39.8,0-82-11.4-122.9-33.7c-2.9-1.6-4.3-4.9-3.4-8s3.8-5.2,7-5.1c29,1.1,55.6-6.7,87.3-26.1
		c-37.4-18.8-61.8-44.6-72.6-76.8c-19.1-56.9,11.6-112.5,12.9-114.8c1.2-2.1,3.3-3.4,5.7-3.6c2.4-0.1,4.7,1,6.1,2.9
		c29.2,40.9,73.9,64.4,123.4,65.2v-10c-0.4-31.2,18.8-58.8,49.1-70.2c31.3-11.8,59.9-7.7,79.1,11.2c2.8-0.8,5.6-1.6,8.4-2.3
		c12.9-3.5,25.2-6.9,37.5-12.9c2.4-1.2,5.4-0.9,7.5,0.9c2.1,1.7,3,4.5,2.4,7.1c-3.4,13.7-14.5,35.1-22.6,50.8
		c-3.4,6.5-7.2,13.9-8,16.3c0,21.8-2.9,43.7-8.8,65c-18.9,67.4-68.1,117.2-135,136.7C241.7,395.4,223.8,397.9,205.4,397.9z
		 M113,363.5c49,21.2,98.5,26.1,141.7,13.6c62.1-18.1,107.8-64.3,125.4-127c5.5-20.3,8.3-41.1,8.2-61.9c-0.1-3.1,1.5-6.4,9.6-22.1
		c5.2-10.1,11.7-22.7,16.3-33.5c-8.5,3-16.8,5.3-25,7.5c-4,1.1-8.1,2.2-12.2,3.4c-2.6,0.8-5.4,0-7.2-2.1
		c-20.7-23.3-50.7-16.6-66.8-10.6c-24.7,9.3-40.4,31.6-40.1,57l0,17.1c0,3.8-3,6.9-6.8,7c-53,1.4-101.6-21-134.9-61.7
		c-7.4,17.6-19.8,55.9-7.1,93.6c10.6,31.4,36.3,56.2,76.6,73.8c2.3,1,4,3.2,4.2,5.8c0.2,2.6-1,5-3.1,6.4
		C170.2,344.2,144.5,358.7,113,363.5z M402.4,187.8C402.4,187.8,402.4,187.8,402.4,187.8C402.4,187.8,402.4,187.8,402.4,187.8z"/>
</g>
</svg>
