<?xml version="1.0" encoding="utf-8"?>
<!-- Generator: Adobe Illustrator 26.3.1, SVG Export Plug-In . SVG Version: 6.00 Build 0)  -->
<svg version="1.1" id="Layer_1" xmlns="http://www.w3.org/2000/svg" xmlns:xlink="http://www.w3.org/1999/xlink" x="0px" y="0px"
	 viewBox="0 0 512 512" style="enable-background:new 0 0 512 512;" xml:space="preserve">
<style type="text/css">
	.st0{fill:#ED323F;}
</style>
<g>
	<path class="st0" d="M348.8,119.1H163.2c-44.8,0-81.2,36.4-81.2,81.2v111.4c0,44.8,36.4,81.2,81.2,81.2h185.6
		c44.8,0,81.2-36.4,81.2-81.2V200.3C430,155.5,393.6,119.1,348.8,119.1z M416,311.7c0,37-30.2,67.2-67.2,67.2H163.2
		c-37,0-67.2-30.2-67.2-67.2V200.3c0-37,30.2-67.2,67.2-67.2h185.6c37,0,67.2,30.2,67.2,67.2V311.7z"/>
	<path class="st0" d="M318.7,256c0,2.5-1.3,4.7-3.4,6l-92.8,55.7c-1.1,0.7-2.3,1-3.6,1c-1.2,0-2.4-0.3-3.5-0.9
		c-2.2-1.2-3.5-3.6-3.5-6.1V200.3c0-2.5,1.4-4.8,3.5-6.1c2.2-1.2,4.9-1.2,7,0.1l92.8,55.7C317.4,251.3,318.7,253.5,318.7,256z"/>
</g>
</svg>
